<?xml version="1.0" encoding="UTF-8" standalone="no"?>
<!-- Created with Inkscape (http://www.inkscape.org/) -->

<svg
   xmlns:dc="http://purl.org/dc/elements/1.1/"
   xmlns:cc="http://creativecommons.org/ns#"
   xmlns:rdf="http://www.w3.org/1999/02/22-rdf-syntax-ns#"
   xmlns:svg="http://www.w3.org/2000/svg"
   xmlns="http://www.w3.org/2000/svg"
   xmlns:sodipodi="http://sodipodi.sourceforge.net/DTD/sodipodi-0.dtd"
   xmlns:inkscape="http://www.inkscape.org/namespaces/inkscape"
   width="210mm"
   height="297mm"
   viewBox="0 0 210 297"
   version="1.1"
   id="svg8"
   inkscape:version="0.92.4 (5da689c313, 2019-01-14)"
   sodipodi:docname="crest.svg">
  <defs
     id="defs2" />
  <sodipodi:namedview
     id="base"
     pagecolor="#ffffff"
     bordercolor="#666666"
     borderopacity="1.0"
     inkscape:pageopacity="0.0"
     inkscape:pageshadow="2"
     inkscape:zoom="0.9899495"
     inkscape:cx="-748.5285"
     inkscape:cy="603.24266"
     inkscape:document-units="mm"
     inkscape:current-layer="layer1"
     showgrid="false"
     inkscape:window-width="1920"
     inkscape:window-height="989"
     inkscape:window-x="0"
     inkscape:window-y="31"
     inkscape:window-maximized="1" />
  <metadata
     id="metadata5">
    <rdf:RDF>
      <cc:Work
         rdf:about="">
        <dc:format>image/svg+xml</dc:format>
        <dc:type
           rdf:resource="http://purl.org/dc/dcmitype/StillImage" />
        <dc:title />
      </cc:Work>
    </rdf:RDF>
  </metadata>
  <g
     inkscape:label="Layer 1"
     inkscape:groupmode="layer"
     id="layer1">
    <path
       id="path3935-6-2-1-8-9"
       style="fill:#ff0000;stroke:#000000;stroke-width:0.26458332px;stroke-linecap:butt;stroke-linejoin:miter;stroke-opacity:1"
       d="m -321.61976,149.9784 23.43453,13.98511 37.04166,-38.1756 8.31549,8.31549 -18.52083,37.41965 23.05654,4.53569 c 0,0 5.28457,-20.5449 8.69344,-36.28569 0.77519,-3.57949 5.49187,-1.38174 8.76505,-1.73333 3.2651,-0.1858 5.51193,-2.06413 7.10998,-4.69228 0.99053,-1.6291 1.60468,-4.85819 1.29047,-6.73873 -1.04523,-4.5266 -1.84556,-5.61055 -4.69228,-7.24639 -3.92536,-1.8663 -8.27093,-1.09425 -12.09523,-2.64584 -3.98489,-1.61674 -7.81412,-3.87298 -10.96132,-6.80357 -3.30145,-3.07423 -6.04597,-6.86588 -7.9375,-10.961309 -2.01165,-4.35552 -3.03486,-9.20154 -3.40178,-13.98512 -0.33847,-4.41293 0.4265,-8.86017 1.13392,-13.22916 0.51776,-3.1976 1.13888,-6.413279 2.26786,-9.449409 1.53191,-4.1197 6.04762,-11.71726 6.04762,-11.71726 0,0 -7.06832,3.64963 -9.82737,6.42559 -3.27664,3.296701 -7.55953,11.717269 -7.55953,11.717269 l -113.90313,-36.644817 14.11741,37.778747 94.49405,12.09523 -0.75594,9.82739 -83.15477,7.93749 15.875,28.726189 69.16964,-22.30059 4.9137,8.69345 -52.91668,35.1518 m 244.172657,0 -23.434527,13.98511 -37.04166,-38.1756 -8.31549,8.31549 18.52083,37.41965 -23.05654,4.53569 c 0,0 -5.28457,-20.5449 -8.69344,-36.28569 -0.77519,-3.57949 -5.49187,-1.38174 -8.76505,-1.73333 -3.2651,-0.1858 -5.51193,-2.06413 -7.10998,-4.69228 -0.99053,-1.6291 -1.60468,-4.85819 -1.29047,-6.73873 1.04523,-4.5266 1.84556,-5.61055 4.69228,-7.24639 3.92536,-1.8663 8.27093,-1.09425 12.09523,-2.64584 3.98489,-1.61674 7.81412,-3.87298 10.96132,-6.80357 3.30145,-3.07423 6.04597,-6.86588 7.9375,-10.961309 2.01165,-4.35552 3.03486,-9.20154 3.40178,-13.98512 0.33847,-4.41293 -0.4265,-8.86017 -1.13392,-13.22916 -0.51776,-3.1976 -1.13888,-6.41328 -2.26786,-9.44941 -1.53191,-4.1197 -6.04762,-11.71726 -6.04762,-11.71726 0,0 7.06832,3.64963 9.82737,6.42559 3.27664,3.2967 7.55953,11.71727 7.55953,11.71727 l 113.903127,-36.644818 -14.11741,37.778748 -94.494047,12.09523 0.75594,9.82739 83.154767,7.93749 -15.875,28.726189 -69.169637,-22.30059 -4.9137,8.69345 52.916677,35.1518"
       inkscape:connector-curvature="0"
       sodipodi:nodetypes="cccccccccccsccccccccccccccccccccccccccccsccccccccccccccccc" />
  </g>
</svg>
