  0
SECTION
  2
HEADER
  9
$ACADVER
  1
AC1014
  9
$HANDSEED
  5
FFFF
  9
$MEASUREMENT
 70
     1
  0
ENDSEC
  0
SECTION
  2
TABLES
  0
TABLE
  2
VPORT
  5
8
330
0
100
AcDbSymbolTable
 70
     4
  0
VPORT
  5
2E
330
8
100
AcDbSymbolTableRecord
100
AcDbViewportTableRecord
  2
*ACTIVE
 70
     0
 10
0.0
 20
0.0
 11
1.0
 21
1.0
 12
210.0
 22
148.5
 13
0.0
 23
0.0
 14
10.0
 24
10.0
 15
10.0
 25
10.0
 16
0.0
 26
0.0
 36
1.0
 17
0.0
 27
0.0
 37
0.0
 40
341.0
 41
1.24
 42
50.0
 43
0.0
 44
0.0
 50
0.0
 51
0.0
 71
     0
 72
   100
 73
     1
 74
     3
 75
     0
 76
     0
 77
     0
 78
     0
  0
ENDTAB
  0
TABLE
  2
LTYPE
  5
5
330
0
100
AcDbSymbolTable
 70
     1
  0
LTYPE
  5
14
330
5
100
AcDbSymbolTableRecord
100
AcDbLinetypeTableRecord
  2
BYBLOCK
 70
     0
  3

 72
    65
 73
     0
 40
0.0
  0
LTYPE
  5
15
330
5
100
AcDbSymbolTableRecord
100
AcDbLinetypeTableRecord
  2
BYLAYER
 70
     0
  3

 72
    65
 73
     0
 40
0.0
  0
LTYPE
  5
16
330
5
100
AcDbSymbolTableRecord
100
AcDbLinetypeTableRecord
  2
CONTINUOUS
 70
     0
  3
Solid line
 72
    65
 73
     0
 40
0.0
  0
ENDTAB
  0
TABLE
  2
LAYER
  5
2
100
AcDbSymbolTable
 70
2
  0
LAYER
  5
50
100
AcDbSymbolTableRecord
100
AcDbLayerTableRecord
  2
0
 70
0
  6
CONTINUOUS
  0
LAYER
  5
51
100
AcDbSymbolTableRecord
100
AcDbLayerTableRecord
  2
Layer_1
 70
0
  6
CONTINUOUS
  0
ENDTAB
  0
TABLE
  2
STYLE
  5
3
330
0
100
AcDbSymbolTable
 70
     1
  0
STYLE
  5
11
330
3
100
AcDbSymbolTableRecord
100
AcDbTextStyleTableRecord
  2
STANDARD
 70
     0
 40
0.0
 41
1.0
 50
0.0
 71
     0
 42
2.5
  3
txt
  4

  0
ENDTAB
  0
TABLE
  2
VIEW
  5
6
330
0
100
AcDbSymbolTable
 70
     0
  0
ENDTAB
  0
TABLE
  2
UCS
  5
7
330
0
100
AcDbSymbolTable
 70
     0
  0
ENDTAB
  0
TABLE
  2
APPID
  5
9
330
0
100
AcDbSymbolTable
 70
     2
  0
APPID
  5
12
330
9
100
AcDbSymbolTableRecord
100
AcDbRegAppTableRecord
  2
ACAD
 70
     0
  0
ENDTAB
  0
TABLE
  2
DIMSTYLE
  5
A
330
0
100
AcDbSymbolTable
 70
     1
  0
DIMSTYLE
105
27
330
A
100
AcDbSymbolTableRecord
100
AcDbDimStyleTableRecord
  2
ISO-25
 70
     0
  3

  4

  5

  6

  7

 40
1.0
 41
2.5
 42
0.625
 43
3.75
 44
1.25
 45
0.0
 46
0.0
 47
0.0
 48
0.0
140
2.5
141
2.5
142
0.0
143
0.03937007874016
144
1.0
145
0.0
146
1.0
147
0.625
 71
     0
 72
     0
 73
     0
 74
     0
 75
     0
 76
     0
 77
     1
 78
     8
170
     0
171
     3
172
     1
173
     0
174
     0
175
     0
176
     0
177
     0
178
     0
270
     2
271
     2
272
     2
273
     2
274
     3
340
11
275
     0
280
     0
281
     0
282
     0
283
     0
284
     8
285
     0
286
     0
287
     3
288
     0
  0
ENDTAB
  0
TABLE
  2
BLOCK_RECORD
  5
1
330
0
100
AcDbSymbolTable
 70
     1
  0
BLOCK_RECORD
  5
1F
330
1
100
AcDbSymbolTableRecord
100
AcDbBlockTableRecord
  2
*MODEL_SPACE
  0
BLOCK_RECORD
  5
1B
330
1
100
AcDbSymbolTableRecord
100
AcDbBlockTableRecord
  2
*PAPER_SPACE
  0
ENDTAB
  0
ENDSEC
  0
SECTION
  2
BLOCKS
  0
BLOCK
  5
20
330
1F
100
AcDbEntity
  8
0
100
AcDbBlockBegin
  2
*MODEL_SPACE
 70
     0
 10
0.0
 20
0.0
 30
0.0
  3
*MODEL_SPACE
  1

  0
ENDBLK
  5
21
330
1F
100
AcDbEntity
  8
0
100
AcDbBlockEnd
  0
BLOCK
  5
1C
330
1B
100
AcDbEntity
 67
     1
  8
0
100
AcDbBlockBegin
  2
*PAPER_SPACE
  1

  0
ENDBLK
  5
1D
330
1B
100
AcDbEntity
 67
     1
  8
0
100
AcDbBlockEnd
  0
ENDSEC
  0
SECTION
  2
ENTITIES
  0
SPLINE
  5
100
100
AcDbEntity
  8
Layer_1
 62
7
100
AcDbSpline
 70
8
 71
3
 72
8
 73
4
 74
0
 40
0
 40
0
 40
0
 40
0
 40
1
 40
1
 40
1
 40
1
 10
-110.653050
 20
183.212314
 30
0.0
 10
-96.445050
 20
183.212314
 30
0.0
 10
-84.973050
 20
178.988314
 30
0.0
 10
-76.237050
 20
170.540314
 30
0.0
  0
SPLINE
  5
101
100
AcDbEntity
  8
Layer_1
 62
7
100
AcDbSpline
 70
8
 71
3
 72
8
 73
4
 74
0
 40
0
 40
0
 40
0
 40
0
 40
1
 40
1
 40
1
 40
1
 10
-76.237050
 20
170.540314
 30
0.0
 10
-67.405050
 20
162.092314
 30
0.0
 10
-62.989050
 20
150.716314
 30
0.0
 10
-62.989050
 20
136.412314
 30
0.0
  0
SPLINE
  5
102
100
AcDbEntity
  8
Layer_1
 62
7
100
AcDbSpline
 70
8
 71
3
 72
8
 73
4
 74
0
 40
0
 40
0
 40
0
 40
0
 40
1
 40
1
 40
1
 40
1
 10
-62.989050
 20
136.412314
 30
0.0
 10
-62.989050
 20
122.204315
 30
0.0
 10
-67.405050
 20
110.876315
 30
0.0
 10
-76.237050
 20
102.428315
 30
0.0
  0
SPLINE
  5
103
100
AcDbEntity
  8
Layer_1
 62
7
100
AcDbSpline
 70
8
 71
3
 72
8
 73
4
 74
0
 40
0
 40
0
 40
0
 40
0
 40
1
 40
1
 40
1
 40
1
 10
-76.237050
 20
102.428315
 30
0.0
 10
-84.973050
 20
93.980315
 30
0.0
 10
-96.445050
 20
89.756315
 30
0.0
 10
-110.653050
 20
89.756315
 30
0.0
  0
LWPOLYLINE
  5
104
100
AcDbEntity
  8
Layer_1
 62
7
100
AcDbPolyline
 90
2
 70
0
 10
-117.565049
 20
183.212314
 30
0.0
 10
-110.653050
 20
183.212314
 30
0.0
  0
SPLINE
  5
105
100
AcDbEntity
  8
Layer_1
 62
7
100
AcDbSpline
 70
8
 71
3
 72
8
 73
4
 74
0
 40
0
 40
0
 40
0
 40
0
 40
1
 40
1
 40
1
 40
1
 10
-110.653050
 20
105.164315
 30
0.0
 10
-101.821050
 20
105.164315
 30
0.0
 10
-94.669050
 20
108.140315
 30
0.0
 10
-89.197050
 20
114.092315
 30
0.0
  0
SPLINE
  5
106
100
AcDbEntity
  8
Layer_1
 62
7
100
AcDbSpline
 70
8
 71
3
 72
8
 73
4
 74
0
 40
0
 40
0
 40
0
 40
0
 40
1
 40
1
 40
1
 40
1
 10
-89.197050
 20
114.092315
 30
0.0
 10
-84.013050
 20
119.852315
 30
0.0
 10
-81.421050
 20
127.292314
 30
0.0
 10
-81.421050
 20
136.412314
 30
0.0
  0
SPLINE
  5
107
100
AcDbEntity
  8
Layer_1
 62
7
100
AcDbSpline
 70
8
 71
3
 72
8
 73
4
 74
0
 40
0
 40
0
 40
0
 40
0
 40
1
 40
1
 40
1
 40
1
 10
-81.421050
 20
136.412314
 30
0.0
 10
-81.421050
 20
145.724314
 30
0.0
 10
-84.013050
 20
153.260314
 30
0.0
 10
-89.197050
 20
159.020314
 30
0.0
  0
SPLINE
  5
108
100
AcDbEntity
  8
Layer_1
 62
7
100
AcDbSpline
 70
8
 71
3
 72
8
 73
4
 74
0
 40
0
 40
0
 40
0
 40
0
 40
1
 40
1
 40
1
 40
1
 10
-89.197050
 20
159.020314
 30
0.0
 10
-94.573050
 20
164.876314
 30
0.0
 10
-101.725050
 20
167.804314
 30
0.0
 10
-110.653050
 20
167.804314
 30
0.0
  0
LWPOLYLINE
  5
109
100
AcDbEntity
  8
Layer_1
 62
7
100
AcDbPolyline
 90
6
 70
0
 10
-110.653050
 20
89.756315
 30
0.0
 10
-141.037049
 20
89.756315
 30
0.0
 10
-141.037049
 20
183.212314
 30
0.0
 10
-123.602249
 20
183.212314
 30
0.0
 10
-123.602249
 20
104.563250
 30
0.0
 10
-110.653050
 20
105.164315
 30
0.0
  0
SPLINE
  5
10a
100
AcDbEntity
  8
Layer_1
 62
7
100
AcDbSpline
 70
8
 71
3
 72
8
 73
4
 74
0
 40
0
 40
0
 40
0
 40
0
 40
1
 40
1
 40
1
 40
1
 10
-8.910301
 20
87.740315
 30
0.0
 10
-20.622301
 20
88.220315
 30
0.0
 10
-29.982301
 20
92.348315
 30
0.0
 10
-36.990300
 20
100.124315
 30
0.0
  0
SPLINE
  5
10b
100
AcDbEntity
  8
Layer_1
 62
7
100
AcDbSpline
 70
8
 71
3
 72
8
 73
4
 74
0
 40
0
 40
0
 40
0
 40
0
 40
1
 40
1
 40
1
 40
1
 10
-36.990300
 20
100.124315
 30
0.0
 10
-44.862300
 20
108.668315
 30
0.0
 10
-48.798300
 20
120.812315
 30
0.0
 10
-48.798300
 20
136.556314
 30
0.0
  0
SPLINE
  5
10c
100
AcDbEntity
  8
Layer_1
 62
7
100
AcDbSpline
 70
8
 71
3
 72
8
 73
4
 74
0
 40
0
 40
0
 40
0
 40
0
 40
1
 40
1
 40
1
 40
1
 10
-48.798300
 20
136.556314
 30
0.0
 10
-48.798300
 20
152.492314
 30
0.0
 10
-44.862300
 20
164.684314
 30
0.0
 10
-36.990300
 20
173.132314
 30
0.0
  0
SPLINE
  5
10d
100
AcDbEntity
  8
Layer_1
 62
7
100
AcDbSpline
 70
8
 71
3
 72
8
 73
4
 74
0
 40
0
 40
0
 40
0
 40
0
 40
1
 40
1
 40
1
 40
1
 10
-36.990300
 20
173.132314
 30
0.0
 10
-30.174301
 20
180.524314
 30
0.0
 10
-20.814301
 20
184.508314
 30
0.0
 10
-8.910301
 20
185.084314
 30
0.0
  0
LWPOLYLINE
  5
10e
100
AcDbEntity
  8
Layer_1
 62
7
100
AcDbPolyline
 90
3
 70
0
 10
-110.653050
 20
167.804314
 30
0.0
 10
-117.565049
 20
167.660314
 30
0.0
 10
-117.565049
 20
183.212314
 30
0.0
  0
SPLINE
  5
10f
100
AcDbEntity
  8
Layer_1
 62
7
100
AcDbSpline
 70
8
 71
3
 72
8
 73
4
 74
0
 40
0
 40
0
 40
0
 40
0
 40
1
 40
1
 40
1
 40
1
 10
-9.918301
 20
169.820314
 30
0.0
 10
-15.102301
 20
169.820314
 30
0.0
 10
-19.950301
 20
166.892314
 30
0.0
 10
-24.462301
 20
161.036314
 30
0.0
  0
SPLINE
  5
110
100
AcDbEntity
  8
Layer_1
 62
7
100
AcDbSpline
 70
8
 71
3
 72
8
 73
4
 74
0
 40
0
 40
0
 40
0
 40
0
 40
1
 40
1
 40
1
 40
1
 10
-24.462301
 20
161.036314
 30
0.0
 10
-28.974301
 20
155.276314
 30
0.0
 10
-31.230301
 20
147.020314
 30
0.0
 10
-31.230301
 20
136.268314
 30
0.0
  0
SPLINE
  5
111
100
AcDbEntity
  8
Layer_1
 62
7
100
AcDbSpline
 70
8
 71
3
 72
8
 73
4
 74
0
 40
0
 40
0
 40
0
 40
0
 40
1
 40
1
 40
1
 40
1
 10
-31.230301
 20
136.268314
 30
0.0
 10
-31.230301
 20
125.612315
 30
0.0
 10
-28.974301
 20
117.404315
 30
0.0
 10
-24.462301
 20
111.644315
 30
0.0
  0
SPLINE
  5
112
100
AcDbEntity
  8
Layer_1
 62
7
100
AcDbSpline
 70
8
 71
3
 72
8
 73
4
 74
0
 40
0
 40
0
 40
0
 40
0
 40
1
 40
1
 40
1
 40
1
 10
-24.462301
 20
111.644315
 30
0.0
 10
-19.950301
 20
105.980315
 30
0.0
 10
-14.766301
 20
103.148315
 30
0.0
 10
-8.910301
 20
103.148315
 30
0.0
  0
SPLINE
  5
113
100
AcDbEntity
  8
Layer_1
 62
7
100
AcDbSpline
 70
8
 71
3
 72
8
 73
4
 74
0
 40
0
 40
0
 40
0
 40
0
 40
1
 40
1
 40
1
 40
1
 10
-8.910301
 20
103.148315
 30
0.0
 10
-9.006301
 20
103.052315
 30
0.0
 10
-9.054301
 20
102.188315
 30
0.0
 10
-9.054301
 20
100.556315
 30
0.0
  0
SPLINE
  5
114
100
AcDbEntity
  8
Layer_1
 62
7
100
AcDbSpline
 70
8
 71
3
 72
8
 73
4
 74
0
 40
0
 40
0
 40
0
 40
0
 40
1
 40
1
 40
1
 40
1
 10
-9.054301
 20
100.556315
 30
0.0
 10
-8.958301
 20
99.020315
 30
0.0
 10
-8.910301
 20
97.292315
 30
0.0
 10
-8.910301
 20
95.372315
 30
0.0
  0
LWPOLYLINE
  5
115
100
AcDbEntity
  8
Layer_1
 62
7
100
AcDbPolyline
 90
4
 70
0
 10
-8.910301
 20
185.084314
 30
0.0
 10
-8.910301
 20
177.452314
 30
0.0
 10
-8.910301
 20
169.820314
 30
0.0
 10
-9.918301
 20
169.820314
 30
0.0
  0
SPLINE
  5
116
100
AcDbEntity
  8
Layer_1
 62
7
100
AcDbSpline
 70
8
 71
3
 72
8
 73
4
 74
0
 40
0
 40
0
 40
0
 40
0
 40
1
 40
1
 40
1
 40
1
 10
-2.430301
 20
103.436315
 30
0.0
 10
3.329699
 20
104.204315
 30
0.0
 10
8.225699
 20
107.180315
 30
0.0
 10
12.257699
 20
112.364315
 30
0.0
  0
SPLINE
  5
117
100
AcDbEntity
  8
Layer_1
 62
7
100
AcDbSpline
 70
8
 71
3
 72
8
 73
4
 74
0
 40
0
 40
0
 40
0
 40
0
 40
1
 40
1
 40
1
 40
1
 10
12.257699
 20
112.364315
 30
0.0
 10
16.385699
 20
117.644315
 30
0.0
 10
18.449699
 20
125.612315
 30
0.0
 10
18.449699
 20
136.268314
 30
0.0
  0
SPLINE
  5
118
100
AcDbEntity
  8
Layer_1
 62
7
100
AcDbSpline
 70
8
 71
3
 72
8
 73
4
 74
0
 40
0
 40
0
 40
0
 40
0
 40
1
 40
1
 40
1
 40
1
 10
18.449699
 20
136.268314
 30
0.0
 10
18.449699
 20
147.020314
 30
0.0
 10
16.385699
 20
155.036314
 30
0.0
 10
12.257699
 20
160.316314
 30
0.0
  0
SPLINE
  5
119
100
AcDbEntity
  8
Layer_1
 62
7
100
AcDbSpline
 70
8
 71
3
 72
8
 73
4
 74
0
 40
0
 40
0
 40
0
 40
0
 40
1
 40
1
 40
1
 40
1
 10
12.257699
 20
160.316314
 30
0.0
 10
8.129699
 20
165.692314
 30
0.0
 10
3.233699
 20
168.716314
 30
0.0
 10
-2.430301
 20
169.388314
 30
0.0
  0
LWPOLYLINE
  5
11a
100
AcDbEntity
  8
Layer_1
 62
7
100
AcDbPolyline
 90
2
 70
0
 10
-8.910301
 20
95.372315
 30
0.0
 10
-8.910301
 20
87.740315
 30
0.0
  0
SPLINE
  5
11b
100
AcDbEntity
  8
Layer_1
 62
7
100
AcDbSpline
 70
8
 71
3
 72
8
 73
4
 74
0
 40
0
 40
0
 40
0
 40
0
 40
1
 40
1
 40
1
 40
1
 10
-2.430301
 20
177.164314
 30
0.0
 10
-2.430301
 20
179.084314
 30
0.0
 10
-2.478301
 20
180.860314
 30
0.0
 10
-2.574301
 20
182.492314
 30
0.0
  0
SPLINE
  5
11c
100
AcDbEntity
  8
Layer_1
 62
7
100
AcDbSpline
 70
8
 71
3
 72
8
 73
4
 74
0
 40
0
 40
0
 40
0
 40
0
 40
1
 40
1
 40
1
 40
1
 10
-2.574301
 20
182.492314
 30
0.0
 10
-2.574301
 20
184.124314
 30
0.0
 10
-2.526301
 20
184.940314
 30
0.0
 10
-2.430301
 20
184.940314
 30
0.0
  0
SPLINE
  5
11d
100
AcDbEntity
  8
Layer_1
 62
7
100
AcDbSpline
 70
8
 71
3
 72
8
 73
4
 74
0
 40
0
 40
0
 40
0
 40
0
 40
1
 40
1
 40
1
 40
1
 10
-2.430301
 20
184.940314
 30
0.0
 10
2.177699
 20
184.652314
 30
0.0
 10
6.833699
 20
183.548314
 30
0.0
 10
11.537699
 20
181.628314
 30
0.0
  0
SPLINE
  5
11e
100
AcDbEntity
  8
Layer_1
 62
7
100
AcDbSpline
 70
8
 71
3
 72
8
 73
4
 74
0
 40
0
 40
0
 40
0
 40
0
 40
1
 40
1
 40
1
 40
1
 10
11.537699
 20
181.628314
 30
0.0
 10
16.241699
 20
179.804314
 30
0.0
 10
20.465699
 20
176.876314
 30
0.0
 10
24.209699
 20
172.844314
 30
0.0
  0
SPLINE
  5
11f
100
AcDbEntity
  8
Layer_1
 62
7
100
AcDbSpline
 70
8
 71
3
 72
8
 73
4
 74
0
 40
0
 40
0
 40
0
 40
0
 40
1
 40
1
 40
1
 40
1
 10
24.209699
 20
172.844314
 30
0.0
 10
32.081699
 20
164.396314
 30
0.0
 10
36.017699
 20
152.300314
 30
0.0
 10
36.017699
 20
136.556314
 30
0.0
  0
SPLINE
  5
120
100
AcDbEntity
  8
Layer_1
 62
7
100
AcDbSpline
 70
8
 71
3
 72
8
 73
4
 74
0
 40
0
 40
0
 40
0
 40
0
 40
1
 40
1
 40
1
 40
1
 10
36.017699
 20
136.556314
 30
0.0
 10
36.017699
 20
120.716315
 30
0.0
 10
32.081699
 20
108.476315
 30
0.0
 10
24.209699
 20
99.836315
 30
0.0
  0
SPLINE
  5
121
100
AcDbEntity
  8
Layer_1
 62
7
100
AcDbSpline
 70
8
 71
3
 72
8
 73
4
 74
0
 40
0
 40
0
 40
0
 40
0
 40
1
 40
1
 40
1
 40
1
 10
24.209699
 20
99.836315
 30
0.0
 10
17.489699
 20
92.636315
 30
0.0
 10
8.657699
 20
88.652315
 30
0.0
 10
-2.286301
 20
87.884315
 30
0.0
  0
LWPOLYLINE
  5
122
100
AcDbEntity
  8
Layer_1
 62
7
100
AcDbPolyline
 90
2
 70
0
 10
-2.430301
 20
169.388314
 30
0.0
 10
-2.430301
 20
177.164314
 30
0.0
  0
LWPOLYLINE
  5
123
100
AcDbEntity
  8
Layer_1
 62
7
100
AcDbPolyline
 90
2
 70
0
 10
-2.286301
 20
87.884315
 30
0.0
 10
-2.430301
 20
103.436315
 30
0.0
  0
LWPOLYLINE
  5
124
100
AcDbEntity
  8
Layer_1
 62
7
100
AcDbPolyline
 90
10
 70
1
 10
74.551198
 20
183.212314
 30
0.0
 10
115.735198
 20
116.972315
 30
0.0
 10
115.735198
 20
183.212314
 30
0.0
 10
132.727197
 20
183.212314
 30
0.0
 10
132.727197
 20
89.756315
 30
0.0
 10
115.447198
 20
89.756315
 30
0.0
 10
72.967198
 20
158.300314
 30
0.0
 10
72.967198
 20
89.756315
 30
0.0
 10
55.975198
 20
89.756315
 30
0.0
 10
55.975198
 20
183.212314
 30
0.0
  0
LWPOLYLINE
  5
125
100
AcDbEntity
  8
Layer_1
 62
7
100
AcDbPolyline
 90
4
 70
1
 10
167.545947
 20
187.244314
 30
0.0
 10
165.241947
 20
152.972314
 30
0.0
 10
152.713947
 20
152.972314
 30
0.0
 10
150.553947
 20
187.244314
 30
0.0
  0
LWPOLYLINE
  5
126
100
AcDbEntity
  8
Layer_1
 62
7
100
AcDbPolyline
 90
7
 70
1
 10
201.772947
 20
183.212314
 30
0.0
 10
247.708946
 20
183.212314
 30
0.0
 10
247.708946
 20
168.524314
 30
0.0
 10
218.764946
 20
168.524314
 30
0.0
 10
218.764946
 20
89.756315
 30
0.0
 10
201.772947
 20
89.756315
 30
0.0
 10
201.772947
 20
168.524314
 30
0.0
  0
LWPOLYLINE
  5
127
100
AcDbEntity
  8
Layer_1
 62
7
100
AcDbPolyline
 90
4
 70
1
 10
196.012947
 20
168.524314
 30
0.0
 10
172.828947
 20
168.524314
 30
0.0
 10
172.828947
 20
183.212314
 30
0.0
 10
196.012947
 20
183.212314
 30
0.0
  0
SPLINE
  5
128
100
AcDbEntity
  8
Layer_1
 62
7
100
AcDbSpline
 70
8
 71
3
 72
8
 73
4
 74
0
 40
0
 40
0
 40
0
 40
0
 40
1
 40
1
 40
1
 40
1
 10
-108.349050
 20
3.212316
 30
0.0
 10
-97.789050
 20
3.212316
 30
0.0
 10
-89.581050
 20
0.620316
 30
0.0
 10
-83.725050
 20
-4.563684
 30
0.0
  0
SPLINE
  5
129
100
AcDbEntity
  8
Layer_1
 62
7
100
AcDbSpline
 70
8
 71
3
 72
8
 73
4
 74
0
 40
0
 40
0
 40
0
 40
0
 40
1
 40
1
 40
1
 40
1
 10
-83.725050
 20
-4.563684
 30
0.0
 10
-77.773050
 20
-9.651684
 30
0.0
 10
-74.797050
 20
-16.995684
 30
0.0
 10
-74.797050
 20
-26.595684
 30
0.0
  0
SPLINE
  5
12a
100
AcDbEntity
  8
Layer_1
 62
7
100
AcDbSpline
 70
8
 71
3
 72
8
 73
4
 74
0
 40
0
 40
0
 40
0
 40
0
 40
1
 40
1
 40
1
 40
1
 10
-74.797050
 20
-26.595684
 30
0.0
 10
-74.797050
 20
-36.099683
 30
0.0
 10
-77.773050
 20
-43.443683
 30
0.0
 10
-83.725050
 20
-48.627683
 30
0.0
  0
SPLINE
  5
12b
100
AcDbEntity
  8
Layer_1
 62
7
100
AcDbSpline
 70
8
 71
3
 72
8
 73
4
 74
0
 40
0
 40
0
 40
0
 40
0
 40
1
 40
1
 40
1
 40
1
 10
-83.725050
 20
-48.627683
 30
0.0
 10
-89.581050
 20
-53.715683
 30
0.0
 10
-97.789050
 20
-56.259683
 30
0.0
 10
-108.349050
 20
-56.259683
 30
0.0
  0
LWPOLYLINE
  5
12c
100
AcDbEntity
  8
Layer_1
 62
7
100
AcDbPolyline
 90
2
 70
0
 10
-118.573049
 20
3.212316
 30
0.0
 10
-108.349050
 20
3.212316
 30
0.0
  0
SPLINE
  5
12d
100
AcDbEntity
  8
Layer_1
 62
7
100
AcDbSpline
 70
8
 71
3
 72
8
 73
4
 74
0
 40
0
 40
0
 40
0
 40
0
 40
1
 40
1
 40
1
 40
1
 10
-108.349050
 20
-41.427683
 30
0.0
 10
-103.069050
 20
-41.427683
 30
0.0
 10
-99.085050
 20
-40.035683
 30
0.0
 10
-96.397050
 20
-37.251683
 30
0.0
  0
SPLINE
  5
12e
100
AcDbEntity
  8
Layer_1
 62
7
100
AcDbSpline
 70
8
 71
3
 72
8
 73
4
 74
0
 40
0
 40
0
 40
0
 40
0
 40
1
 40
1
 40
1
 40
1
 10
-96.397050
 20
-37.251683
 30
0.0
 10
-93.709050
 20
-34.467683
 30
0.0
 10
-92.365050
 20
-30.915684
 30
0.0
 10
-92.365050
 20
-26.595684
 30
0.0
  0
SPLINE
  5
12f
100
AcDbEntity
  8
Layer_1
 62
7
100
AcDbSpline
 70
8
 71
3
 72
8
 73
4
 74
0
 40
0
 40
0
 40
0
 40
0
 40
1
 40
1
 40
1
 40
1
 10
-92.365050
 20
-26.595684
 30
0.0
 10
-92.365050
 20
-22.179684
 30
0.0
 10
-93.709050
 20
-18.579684
 30
0.0
 10
-96.397050
 20
-15.795684
 30
0.0
  0
SPLINE
  5
130
100
AcDbEntity
  8
Layer_1
 62
7
100
AcDbSpline
 70
8
 71
3
 72
8
 73
4
 74
0
 40
0
 40
0
 40
0
 40
0
 40
1
 40
1
 40
1
 40
1
 10
-96.397050
 20
-15.795684
 30
0.0
 10
-99.085050
 20
-12.915684
 30
0.0
 10
-103.069050
 20
-11.475684
 30
0.0
 10
-108.349050
 20
-11.475684
 30
0.0
  0
LWPOLYLINE
  5
131
100
AcDbEntity
  8
Layer_1
 62
7
100
AcDbPolyline
 90
8
 70
0
 10
-108.349050
 20
-56.259683
 30
0.0
 10
-124.189049
 20
-56.259683
 30
0.0
 10
-124.189049
 20
-90.243683
 30
0.0
 10
-141.325049
 20
-90.243683
 30
0.0
 10
-141.325049
 20
3.212316
 30
0.0
 10
-124.189049
 20
3.212316
 30
0.0
 10
-124.189049
 20
-41.427683
 30
0.0
 10
-108.349050
 20
-41.427683
 30
0.0
  0
LWPOLYLINE
  5
132
100
AcDbEntity
  8
Layer_1
 62
7
100
AcDbPolyline
 90
3
 70
0
 10
-108.349050
 20
-11.475684
 30
0.0
 10
-118.573049
 20
-11.475684
 30
0.0
 10
-118.573049
 20
3.212316
 30
0.0
  0
SPLINE
  5
133
100
AcDbEntity
  8
Layer_1
 62
7
100
AcDbSpline
 70
8
 71
3
 72
8
 73
4
 74
0
 40
0
 40
0
 40
0
 40
0
 40
1
 40
1
 40
1
 40
1
 10
-44.548050
 20
-57.267683
 30
0.0
 10
-45.220050
 20
-59.187683
 30
0.0
 10
-45.844050
 20
-60.963683
 30
0.0
 10
-46.420050
 20
-62.595683
 30
0.0
  0
SPLINE
  5
134
100
AcDbEntity
  8
Layer_1
 62
7
100
AcDbSpline
 70
8
 71
3
 72
8
 73
4
 74
0
 40
0
 40
0
 40
0
 40
0
 40
1
 40
1
 40
1
 40
1
 10
-46.420050
 20
-62.595683
 30
0.0
 10
-46.900050
 20
-64.131683
 30
0.0
 10
-47.332050
 20
-65.427683
 30
0.0
 10
-47.716050
 20
-66.483683
 30
0.0
  0
LWPOLYLINE
  5
135
100
AcDbEntity
  8
Layer_1
 62
7
100
AcDbPolyline
 90
4
 70
0
 10
-38.932050
 20
-57.123683
 30
0.0
 10
-18.340051
 20
-57.267683
 30
0.0
 10
-31.300051
 20
-17.091684
 30
0.0
 10
-44.548050
 20
-57.267683
 30
0.0
  0
LWPOLYLINE
  5
136
100
AcDbEntity
  8
Layer_1
 62
7
100
AcDbPolyline
 90
11
 70
0
 10
-47.716050
 20
-66.483683
 30
0.0
 10
-48.868050
 20
-69.939683
 30
0.0
 10
-55.492050
 20
-90.243683
 30
0.0
 10
-73.492050
 20
-90.243683
 30
0.0
 10
-41.668050
 20
3.212316
 30
0.0
 10
-20.212051
 20
3.212316
 30
0.0
 10
10.315949
 20
-90.243683
 30
0.0
 10
-7.684051
 20
-90.243683
 30
0.0
 10
-14.164051
 20
-70.083683
 30
0.0
 10
-43.108050
 20
-70.083683
 30
0.0
 10
-38.932050
 20
-57.123683
 30
0.0
  0
LWPOLYLINE
  5
137
100
AcDbEntity
  8
Layer_1
 62
7
100
AcDbPolyline
 90
10
 70
1
 10
45.301199
 20
3.212316
 30
0.0
 10
86.485198
 20
-63.027683
 30
0.0
 10
86.485198
 20
3.212316
 30
0.0
 10
103.477198
 20
3.212316
 30
0.0
 10
103.477198
 20
-90.243683
 30
0.0
 10
86.197198
 20
-90.243683
 30
0.0
 10
43.717199
 20
-21.699684
 30
0.0
 10
43.717199
 20
-90.243683
 30
0.0
 10
26.725199
 20
-90.243683
 30
0.0
 10
26.725199
 20
3.212316
 30
0.0
  0
SPLINE
  5
138
100
AcDbEntity
  8
Layer_1
 62
7
100
AcDbSpline
 70
8
 71
3
 72
8
 73
4
 74
0
 40
0
 40
0
 40
0
 40
0
 40
1
 40
1
 40
1
 40
1
 10
207.658946
 20
5.084316
 30
0.0
 10
213.418946
 20
5.084316
 30
0.0
 10
218.410946
 20
4.364316
 30
0.0
 10
222.634946
 20
2.924316
 30
0.0
  0
SPLINE
  5
139
100
AcDbEntity
  8
Layer_1
 62
7
100
AcDbSpline
 70
8
 71
3
 72
8
 73
4
 74
0
 40
0
 40
0
 40
0
 40
0
 40
1
 40
1
 40
1
 40
1
 10
222.634946
 20
2.924316
 30
0.0
 10
226.858946
 20
1.580316
 30
0.0
 10
230.506946
 20
-0.339684
 30
0.0
 10
233.578946
 20
-2.835684
 30
0.0
  0
SPLINE
  5
13a
100
AcDbEntity
  8
Layer_1
 62
7
100
AcDbSpline
 70
8
 71
3
 72
8
 73
4
 74
0
 40
0
 40
0
 40
0
 40
0
 40
1
 40
1
 40
1
 40
1
 10
233.578946
 20
-2.835684
 30
0.0
 10
239.626946
 20
-7.731684
 30
0.0
 10
243.562946
 20
-14.595684
 30
0.0
 10
245.386946
 20
-23.427684
 30
0.0
  0
LWPOLYLINE
  5
13b
100
AcDbEntity
  8
Layer_1
 62
7
100
AcDbPolyline
 90
4
 70
1
 10
130.231947
 20
3.212316
 30
0.0
 10
147.223947
 20
3.212316
 30
0.0
 10
147.223947
 20
-90.243683
 30
0.0
 10
130.231947
 20
-90.243683
 30
0.0
  0
SPLINE
  5
13c
100
AcDbEntity
  8
Layer_1
 62
7
100
AcDbSpline
 70
8
 71
3
 72
8
 73
4
 74
0
 40
0
 40
0
 40
0
 40
0
 40
1
 40
1
 40
1
 40
1
 10
227.242946
 20
-26.739684
 30
0.0
 10
225.706946
 20
-21.843684
 30
0.0
 10
223.306946
 20
-17.907684
 30
0.0
 10
220.042946
 20
-14.931684
 30
0.0
  0
SPLINE
  5
13d
100
AcDbEntity
  8
Layer_1
 62
7
100
AcDbSpline
 70
8
 71
3
 72
8
 73
4
 74
0
 40
0
 40
0
 40
0
 40
0
 40
1
 40
1
 40
1
 40
1
 10
220.042946
 20
-14.931684
 30
0.0
 10
216.874946
 20
-11.859684
 30
0.0
 10
212.890946
 20
-10.323684
 30
0.0
 10
208.090946
 20
-10.323684
 30
0.0
  0
SPLINE
  5
13e
100
AcDbEntity
  8
Layer_1
 62
7
100
AcDbSpline
 70
8
 71
3
 72
8
 73
4
 74
0
 40
0
 40
0
 40
0
 40
0
 40
1
 40
1
 40
1
 40
1
 10
208.090946
 20
-10.323684
 30
0.0
 10
201.562947
 20
-10.323684
 30
0.0
 10
196.282947
 20
-13.059684
 30
0.0
 10
192.250947
 20
-18.531684
 30
0.0
  0
SPLINE
  5
13f
100
AcDbEntity
  8
Layer_1
 62
7
100
AcDbSpline
 70
8
 71
3
 72
8
 73
4
 74
0
 40
0
 40
0
 40
0
 40
0
 40
1
 40
1
 40
1
 40
1
 10
192.250947
 20
-18.531684
 30
0.0
 10
187.930947
 20
-24.483684
 30
0.0
 10
185.770947
 20
-32.739683
 30
0.0
 10
185.770947
 20
-43.299683
 30
0.0
  0
SPLINE
  5
140
100
AcDbEntity
  8
Layer_1
 62
7
100
AcDbSpline
 70
8
 71
3
 72
8
 73
4
 74
0
 40
0
 40
0
 40
0
 40
0
 40
1
 40
1
 40
1
 40
1
 10
185.770947
 20
-43.299683
 30
0.0
 10
185.770947
 20
-53.763683
 30
0.0
 10
187.690947
 20
-61.971683
 30
0.0
 10
191.530947
 20
-67.923683
 30
0.0
  0
SPLINE
  5
141
100
AcDbEntity
  8
Layer_1
 62
7
100
AcDbSpline
 70
8
 71
3
 72
8
 73
4
 74
0
 40
0
 40
0
 40
0
 40
0
 40
1
 40
1
 40
1
 40
1
 10
191.530947
 20
-67.923683
 30
0.0
 10
195.370947
 20
-73.779683
 30
0.0
 10
200.602947
 20
-76.707683
 30
0.0
 10
207.226946
 20
-76.707683
 30
0.0
  0
SPLINE
  5
142
100
AcDbEntity
  8
Layer_1
 62
7
100
AcDbSpline
 70
8
 71
3
 72
8
 73
4
 74
0
 40
0
 40
0
 40
0
 40
0
 40
1
 40
1
 40
1
 40
1
 10
207.226946
 20
-76.707683
 30
0.0
 10
213.850946
 20
-76.707683
 30
0.0
 10
218.842946
 20
-75.123683
 30
0.0
 10
222.202946
 20
-71.955683
 30
0.0
  0
SPLINE
  5
143
100
AcDbEntity
  8
Layer_1
 62
7
100
AcDbSpline
 70
8
 71
3
 72
8
 73
4
 74
0
 40
0
 40
0
 40
0
 40
0
 40
1
 40
1
 40
1
 40
1
 10
222.202946
 20
-71.955683
 30
0.0
 10
225.562946
 20
-68.691683
 30
0.0
 10
227.242946
 20
-64.515683
 30
0.0
 10
227.242946
 20
-59.427683
 30
0.0
  0
LWPOLYLINE
  5
144
100
AcDbEntity
  8
Layer_1
 62
7
100
AcDbPolyline
 90
2
 70
0
 10
245.386946
 20
-23.427684
 30
0.0
 10
227.242946
 20
-26.739684
 30
0.0
  0
SPLINE
  5
145
100
AcDbEntity
  8
Layer_1
 62
7
100
AcDbSpline
 70
8
 71
3
 72
8
 73
4
 74
0
 40
0
 40
0
 40
0
 40
0
 40
1
 40
1
 40
1
 40
1
 10
245.530946
 20
-59.427683
 30
0.0
 10
245.530946
 20
-69.891683
 30
0.0
 10
242.170946
 20
-78.003683
 30
0.0
 10
235.450946
 20
-83.763683
 30
0.0
  0
SPLINE
  5
146
100
AcDbEntity
  8
Layer_1
 62
7
100
AcDbSpline
 70
8
 71
3
 72
8
 73
4
 74
0
 40
0
 40
0
 40
0
 40
0
 40
1
 40
1
 40
1
 40
1
 10
235.450946
 20
-83.763683
 30
0.0
 10
228.826946
 20
-89.427683
 30
0.0
 10
219.706946
 20
-92.259683
 30
0.0
 10
208.090946
 20
-92.259683
 30
0.0
  0
SPLINE
  5
147
100
AcDbEntity
  8
Layer_1
 62
7
100
AcDbSpline
 70
8
 71
3
 72
8
 73
4
 74
0
 40
0
 40
0
 40
0
 40
0
 40
1
 40
1
 40
1
 40
1
 10
208.090946
 20
-92.259683
 30
0.0
 10
195.706947
 20
-92.259683
 30
0.0
 10
185.866947
 20
-87.939683
 30
0.0
 10
178.570947
 20
-79.299683
 30
0.0
  0
SPLINE
  5
148
100
AcDbEntity
  8
Layer_1
 62
7
100
AcDbSpline
 70
8
 71
3
 72
8
 73
4
 74
0
 40
0
 40
0
 40
0
 40
0
 40
1
 40
1
 40
1
 40
1
 10
178.570947
 20
-79.299683
 30
0.0
 10
171.178947
 20
-70.467683
 30
0.0
 10
167.482947
 20
-58.467683
 30
0.0
 10
167.482947
 20
-43.299683
 30
0.0
  0
SPLINE
  5
149
100
AcDbEntity
  8
Layer_1
 62
7
100
AcDbSpline
 70
8
 71
3
 72
8
 73
4
 74
0
 40
0
 40
0
 40
0
 40
0
 40
1
 40
1
 40
1
 40
1
 10
167.482947
 20
-43.299683
 30
0.0
 10
167.482947
 20
-27.939684
 30
0.0
 10
171.274947
 20
-15.939684
 30
0.0
 10
178.858947
 20
-7.299684
 30
0.0
  0
SPLINE
  5
14a
100
AcDbEntity
  8
Layer_1
 62
7
100
AcDbSpline
 70
8
 71
3
 72
8
 73
4
 74
0
 40
0
 40
0
 40
0
 40
0
 40
1
 40
1
 40
1
 40
1
 10
178.858947
 20
-7.299684
 30
0.0
 10
186.154947
 20
0.956316
 30
0.0
 10
195.754947
 20
5.084316
 30
0.0
 10
207.658946
 20
5.084316
 30
0.0
  0
LWPOLYLINE
  5
14b
100
AcDbEntity
  8
Layer_1
 62
7
100
AcDbPolyline
 90
2
 70
0
 10
227.242946
 20
-59.427683
 30
0.0
 10
245.530946
 20
-59.427683
 30
0.0
  0
LWPOLYLINE
  5
14c
100
AcDbEntity
  8
Layer_1
 62
7
100
AcDbPolyline
 90
1
 70
1
 10
207.658946
 20
5.084316
 30
0.0
  0
ENDSEC
  0
SECTION
  2
OBJECTS
  0
DICTIONARY
  5
C
330
0
100
AcDbDictionary
  3
ACAD_GROUP
350
D
  3
ACAD_MLINESTYLE
350
17
  0
DICTIONARY
  5
D
330
C
100
AcDbDictionary
  0
DICTIONARY
  5
1A
330
C
100
AcDbDictionary
  0
DICTIONARY
  5
17
330
C
100
AcDbDictionary
  3
STANDARD
350
18
  0
DICTIONARY
  5
19
330
C
100
AcDbDictionary
  0
ENDSEC
  0
EOF
