<?xml version="1.0" encoding="UTF-8" standalone="no"?>
<!-- Created with Inkscape (http://www.inkscape.org/) -->

<svg
   xmlns:dc="http://purl.org/dc/elements/1.1/"
   xmlns:cc="http://creativecommons.org/ns#"
   xmlns:rdf="http://www.w3.org/1999/02/22-rdf-syntax-ns#"
   xmlns:svg="http://www.w3.org/2000/svg"
   xmlns="http://www.w3.org/2000/svg"
   xmlns:sodipodi="http://sodipodi.sourceforge.net/DTD/sodipodi-0.dtd"
   xmlns:inkscape="http://www.inkscape.org/namespaces/inkscape"
   width="210mm"
   height="297mm"
   viewBox="0 0 210 297"
   version="1.1"
   id="svg69"
   inkscape:version="0.92.4 (5da689c313, 2019-01-14)"
   sodipodi:docname="dont-panic-stencil2.svg">
  <defs
     id="defs63" />
  <sodipodi:namedview
     id="base"
     pagecolor="#ffffff"
     bordercolor="#666666"
     borderopacity="1.0"
     inkscape:pageopacity="0.0"
     inkscape:pageshadow="2"
     inkscape:zoom="2.8"
     inkscape:cx="342.68239"
     inkscape:cy="231.23417"
     inkscape:document-units="mm"
     inkscape:current-layer="layer1"
     showgrid="false"
     inkscape:window-width="1920"
     inkscape:window-height="989"
     inkscape:window-x="0"
     inkscape:window-y="31"
     inkscape:window-maximized="1" />
  <metadata
     id="metadata66">
    <rdf:RDF>
      <cc:Work
         rdf:about="">
        <dc:format>image/svg+xml</dc:format>
        <dc:type
           rdf:resource="http://purl.org/dc/dcmitype/StillImage" />
        <dc:title />
      </cc:Work>
    </rdf:RDF>
  </metadata>
  <g
     inkscape:label="Layer 1"
     inkscape:groupmode="layer"
     id="layer1">
    <g
       aria-label="DON'T PANIC"
       transform="matrix(0.26458333,0,0,0.26458333,392.52827,151.00149)"
       style="font-style:normal;font-weight:normal;font-size:40px;line-height:1.25;font-family:sans-serif;letter-spacing:0px;word-spacing:0px;fill:#ffaaaa;fill-opacity:1;stroke:none"
       id="flowRoot165">
      <path
         id="path193"
         style="font-style:normal;font-variant:normal;font-weight:normal;font-stretch:normal;font-size:192px;font-family:Karla;-inkscape-font-specification:Karla;fill:#ffaaaa"
         d="m -1188.8357,470.02631 c 7.68,0 14.336,0.96 19.968,2.88 5.632,1.792 10.496,4.352 14.592,7.68 8.064,6.528 13.312,15.68 15.744,27.456 l -24.192,4.416 c -2.048,-6.528 -5.248,-11.776 -9.6,-15.744 -4.224,-4.096 -9.536,-6.144 -15.936,-6.144 -8.704,0 -15.744,3.648 -21.12,10.944 -5.76,7.936 -8.64,18.944 -8.64,33.024 0,13.952 2.56,24.896 7.68,32.832 5.12,7.808 12.096,11.712 20.928,11.712 8.832,0 15.488,-2.112 19.968,-6.336 4.48,-4.352 6.72,-9.92 6.72,-16.704 h 24.384 c 0,13.952 -4.48,24.768 -13.44,32.448 -8.832,7.552 -20.992,11.328 -36.48,11.328 -16.512,0 -29.632,-5.76 -39.36,-17.28 -9.856,-11.776 -14.784,-27.776 -14.784,-48 0,-20.48 5.056,-36.48 15.168,-48 9.728,-11.008 22.528,-16.512 38.4,-16.512 z m -103.236,2.496 h 22.656 v 124.608 h -22.656 z m -113.241,0 54.912,88.32 v -88.32 h 22.656 v 124.608 h -23.04 l -56.64,-91.392 v 91.392 h -22.656 v -124.608 z m -112.311,80.448 27.456,0.192 -17.28,-53.568 -17.664,53.568 c -0.896,2.56 -1.728,4.928 -2.496,7.104 -0.64,2.048 -1.216,3.776 -1.728,5.184 l -1.536,4.608 -8.832,27.072 h -24 l 42.432,-124.608 h 28.608 l 40.704,124.608 h -24 l -8.64,-26.88 h -38.592 z m -106.188,-80.448 h 13.632 c 14.08,0 25.024,3.456 32.832,10.368 7.936,6.784 11.904,16.576 11.904,29.376 0,12.672 -3.968,22.464 -11.904,29.376 -7.808,6.784 -18.752,10.176 -32.832,10.176 h -21.12 v 45.312 h -22.848 v -124.608 h 22.848 v 59.52 h 21.12 c 7.04,0 12.352,-1.856 15.936,-5.568 3.584,-3.712 5.376,-8.448 5.376,-14.208 0,-5.888 -1.792,-10.688 -5.376,-14.4 -3.584,-3.84 -8.896,-5.76 -15.936,-5.76 h -13.632 z m 381.492,-245.376 -3.072,45.696 h -16.704 l -2.88,-45.696 z m -123.993,5.376 54.912,88.32 v -88.32 h 22.656 v 124.608 h -23.04 l -56.64,-91.392 v 91.392 h -22.656 v -124.608 z m -111.282,127.296 c -15.616,-0.64 -28.096,-6.144 -37.44,-16.512 -10.496,-11.392 -15.744,-27.584 -15.744,-48.576 0,-21.248 5.248,-37.504 15.744,-48.768 9.088,-9.856 21.568,-15.168 37.44,-15.936 v 10.176 10.176 h -1.344 c -6.912,0 -13.376,3.904 -19.392,11.712 -6.016,7.68 -9.024,18.688 -9.024,33.024 0,14.208 3.008,25.152 9.024,32.832 6.016,7.552 12.928,11.328 20.736,11.328 -0.128,0.128 -0.192,1.28 -0.192,3.456 0.128,2.048 0.192,4.352 0.192,6.912 z m 8.64,-20.928 c 7.68,-1.024 14.208,-4.992 19.584,-11.904 5.504,-7.04 8.256,-17.664 8.256,-31.872 0,-14.336 -2.752,-25.024 -8.256,-32.064 -5.504,-7.168 -12.032,-11.2 -19.584,-12.096 v -10.368 c 0,-2.56 -0.064,-4.928 -0.192,-7.104 0,-2.176 0.064,-3.264 0.192,-3.264 6.144,0.384 12.352,1.856 18.624,4.416 6.272,2.432 11.904,6.336 16.896,11.712 10.496,11.264 15.744,27.392 15.744,48.384 0,21.12 -5.248,37.44 -15.744,48.96 -8.96,9.6 -20.736,14.912 -35.328,15.936 z m -153.513,-106.368 h 9.216 c 18.944,0 34.24,5.632 45.888,16.896 11.776,11.264 17.664,26.432 17.664,45.504 0,18.944 -5.888,34.048 -17.664,45.312 -11.648,11.264 -26.944,16.896 -45.888,16.896 h -40.512 v -124.608 h 23.2464 v 104.86542 l 17.2656,-0.80142 c 11.776,0 21.312,-3.968 28.608,-11.904 6.912,-7.68 10.368,-17.6 10.368,-29.76 0,-12.416 -3.456,-22.464 -10.368,-30.144 -7.168,-7.808 -16.704,-11.712 -28.608,-11.712 l -9.216,0.192 z m 418.104,19.58401 h -30.912 v -19.584 h 30.912 z m 7.68,-19.584 h 61.248 v 19.584 h -38.592 v 105.024 h -22.656 z" />
    </g>
  </g>
</svg>
