<?xml version="1.0" encoding="UTF-8" standalone="no"?>
<svg
   xmlns:dc="http://purl.org/dc/elements/1.1/"
   xmlns:cc="http://creativecommons.org/ns#"
   xmlns:rdf="http://www.w3.org/1999/02/22-rdf-syntax-ns#"
   xmlns:svg="http://www.w3.org/2000/svg"
   xmlns="http://www.w3.org/2000/svg"
   xmlns:sodipodi="http://sodipodi.sourceforge.net/DTD/sodipodi-0.dtd"
   xmlns:inkscape="http://www.inkscape.org/namespaces/inkscape"
   width="210mm"
   height="297mm"
   viewBox="0 0 210 297"
   version="1.1"
   id="svg8"
   inkscape:version="0.92.4 (5da689c313, 2019-01-14)"
   sodipodi:docname="Gear.svg">
  <defs
     id="defs2" />
  <sodipodi:namedview
     id="base"
     pagecolor="#ffffff"
     bordercolor="#666666"
     borderopacity="1.0"
     inkscape:pageopacity="0.0"
     inkscape:pageshadow="2"
     inkscape:zoom="0.24748737"
     inkscape:cx="1374.2123"
     inkscape:cy="952.59359"
     inkscape:document-units="mm"
     inkscape:current-layer="layer1"
     inkscape:document-rotation="0"
     showgrid="false"
     inkscape:window-width="1920"
     inkscape:window-height="989"
     inkscape:window-x="0"
     inkscape:window-y="31"
     inkscape:window-maximized="1" />
  <metadata
     id="metadata5">
    <rdf:RDF>
      <cc:Work
         rdf:about="">
        <dc:format>image/svg+xml</dc:format>
        <dc:type
           rdf:resource="http://purl.org/dc/dcmitype/StillImage" />
        <dc:title />
      </cc:Work>
    </rdf:RDF>
  </metadata>
  <g
     inkscape:label="Layer 1"
     inkscape:groupmode="layer"
     id="layer1">
    <path
       style="fill:#00ff00;stroke:#800080;stroke-width:0.75595164"
       d="m -67.7731,507.30283 c -6.23663,-0.27676 -14.2308,-0.55055 -17.7649,-0.60838 l -6.42559,-0.1052 -8.2447,-20.98395 -8.24469,-20.98394 -9.30785,-1.67114 c -11.83042,-2.12405 -16.49407,-3.71522 -28.60022,-9.75804 -5.38797,-2.68941 -10.32055,-4.74835 -10.96131,-4.57542 -0.64077,0.17294 -8.91723,5.9644 -18.39212,12.86989 l -17.2271,12.55546 -13.01099,-9.65898 c -7.15605,-5.31247 -19.04918,-14.14148 -26.42917,-19.62005 -7.37997,-5.47857 -13.41816,-10.17616 -13.41816,-10.43908 0,-0.26294 2.56233,-10.097 5.69407,-21.8535 l 5.69407,-21.37545 -8.3603,-8.15279 c -8.90056,-8.67958 -11.9502,-12.91211 -18.02302,-25.01361 -3.41466,-6.80451 -4.06533,-7.64971 -6.22091,-8.08083 -1.32408,-0.26482 -8.94704,-0.48148 -16.93992,-0.48148 -7.9929,0 -17.10031,-0.21706 -20.23872,-0.48235 l -5.70619,-0.48235 -9.90489,-28.1754 c -5.44769,-15.49649 -9.8842,-28.46135 -9.85888,-28.81082 0.0254,-0.34946 8.89043,-7.04808 19.70022,-14.88581 l 19.6542,-14.25042 -0.61243,-8.05018 c -0.98208,-12.90964 -0.60891,-19.60019 1.6723,-29.9818 1.3603,-6.19058 1.83533,-9.76023 1.34138,-10.07969 -0.42063,-0.27205 -8.74601,-6.57912 -18.5008,-14.01571 l -17.736,-13.52107 11.0137,-28.31511 11.01368,-28.31512 10.20535,0.44122 c 5.61295,0.24267 16.89433,0.66551 25.06972,0.93965 l 14.86437,0.49845 3.1846,-6.3505 c 4.7412,-9.45455 8.86701,-15.4329 15.7275,-22.78934 3.39114,-3.63631 6.16571,-6.99587 6.16571,-7.46567 0,-0.46981 -2.55108,-9.5429 -5.66906,-20.16243 -3.11799,-10.61953 -5.58427,-19.36409 -5.48066,-19.43238 0.10364,-0.0683 11.68167,-8.17561 25.72895,-18.01627 14.04729,-9.84068 25.83286,-17.89213 26.19016,-17.89213 0.35729,0 8.70084,5.46174 18.54123,12.1372 9.84038,6.67546 18.31118,12.2982 18.82399,12.49499 0.51279,0.19678 5.16887,-1.6605 10.3468,-4.1273 11.57986,-5.51671 17.16468,-7.26076 28.11496,-8.77986 4.68257,-0.6496 9.55144,-1.34499 10.81972,-1.54532 l 2.30595,-0.36423 4.51609,-19.08185 4.51609,-19.0818502 33.52076,0.0983 c 22.30644,0.0654 33.6809,0.36152 33.99938,0.88502 0.26323,0.43267 2.48245,9.27369 4.93154,19.6467202 l 4.45294,18.86005 4.9964699,0.46572 c 15.27312,1.42357 24.9540401,4.17442 38.2571631,10.87081 l 7.5583,3.80463 19.01277,-12.85445 19.01275,-12.85445 26.042937,18.22438 26.04293,18.22438 -5.83104,19.80647 -5.83102,19.80647 6.82675,7.60617 c 7.42201,8.26937 9.6969,11.55791 15.28765,22.09959 l 3.67737,6.93392 6.46699,-0.34187 c 19.54787,-1.03334 42.78511,-1.68821 43.17318,-1.21671 0.24535,0.29807 5.33458,13.06778 11.30943,28.37713 6.61683,16.95427 10.56589,28.03572 10.10234,28.34821 -0.63124,0.42555 -34.76931,26.29415 -35.75351,27.09272 -0.17275,0.14017 0.64185,5.10279 1.8102,11.02806 1.95784,9.92905 2.09005,11.69134 1.6874,22.49047 -0.24026,6.4445 -0.63873,12.24148 -0.88548,12.88218 -0.33078,0.85893 4.8237,5.00552 19.62346,15.78637 14.87432,10.83516 19.97129,14.93803 19.68289,15.84401 -0.214,0.67241 -4.75698,13.63908 -10.09545,28.81482 l -9.70634,27.59227 -18.08282,0.46451 c -9.94558,0.25548 -20.02491,0.51062 -22.39851,0.56697 l -4.31567,0.10244 -4.21143,8.23329 c -1.38502,16.82073 -23.28976,20.34953 -26.06767,33.64093 0.0116,0.4604 2.54367,10.17063 5.62681,21.5783 3.08311,11.40767 5.45031,20.9926 5.26045,21.29981 -0.18987,0.3072 -12.07149,9.28523 -26.40357,19.95117 l -26.058357,19.3926 -2.46878,-1.74389 c -1.35778,-0.95917 -9.39249,-6.76918 -17.85487,-12.91116 -8.46238,-6.14199 -15.64227,-11.16725 -15.9553,-11.16725 -0.31303,0 -3.76473,1.6796 -7.67041,3.73243 -10.948063,5.75431 -18.260613,8.39062 -29.715563,10.713 -5.7854901,1.17293 -10.75717011,2.39967 -11.04815011,2.72603 -0.29099,0.32639 -3.99774999,9.43809 -8.23721999,20.24819 -4.2394799,10.81011 -7.9423699,19.86701 -8.2286499,20.12641 -0.80105,0.72591 -38.42025,1.17051 -51.16928,0.60473 z"
       id="path133"
       inkscape:connector-curvature="0"
       sodipodi:nodetypes="cccccsccscccssccscsscscsccccscccsscscsscssscssccccsccccsccccccccccscscccccscscscccccccccsssccsccc" />
  </g>
</svg>
