<?xml version="1.0" encoding="UTF-8" standalone="no"?>
<svg
   xmlns:dc="http://purl.org/dc/elements/1.1/"
   xmlns:cc="http://creativecommons.org/ns#"
   xmlns:rdf="http://www.w3.org/1999/02/22-rdf-syntax-ns#"
   xmlns:svg="http://www.w3.org/2000/svg"
   xmlns="http://www.w3.org/2000/svg"
   xmlns:sodipodi="http://sodipodi.sourceforge.net/DTD/sodipodi-0.dtd"
   xmlns:inkscape="http://www.inkscape.org/namespaces/inkscape"
   width="210mm"
   height="297mm"
   viewBox="0 0 210 297"
   version="1.1"
   id="svg8"
   inkscape:version="0.92.4 (5da689c313, 2019-01-14)"
   sodipodi:docname="Knight.svg">
  <defs
     id="defs2" />
  <sodipodi:namedview
     id="base"
     pagecolor="#ffffff"
     bordercolor="#666666"
     borderopacity="1.0"
     inkscape:pageopacity="0.0"
     inkscape:pageshadow="2"
     inkscape:zoom="0.081137417"
     inkscape:cx="315.40707"
     inkscape:cy="4083.1954"
     inkscape:document-units="mm"
     inkscape:current-layer="layer1"
     inkscape:document-rotation="0"
     showgrid="false"
     inkscape:window-width="1920"
     inkscape:window-height="989"
     inkscape:window-x="0"
     inkscape:window-y="31"
     inkscape:window-maximized="1" />
  <metadata
     id="metadata5">
    <rdf:RDF>
      <cc:Work
         rdf:about="">
        <dc:format>image/svg+xml</dc:format>
        <dc:type
           rdf:resource="http://purl.org/dc/dcmitype/StillImage" />
        <dc:title />
      </cc:Work>
    </rdf:RDF>
  </metadata>
  <g
     inkscape:label="Layer 1"
     inkscape:groupmode="layer"
     id="layer1">
    <path
       style="fill:#ff0000;stroke-width:6.50204134"
       d="M 50.379945,445.32218 C -56.380165,437.78115 -137.19079,422.5969 -227.60692,393.0889 -375.82279,344.71755 -448.05582,294.36577 -516.14143,191.95926 -611.52046,48.501239 -619.64993,22.123253 -658.41726,-269.68611 c -12.59001,-94.76724 -27.131,-195.71161 -32.31329,-224.32054 -13.20191,-72.88091 -54.89194,-152.48352 -127.85892,-244.13259 -65.99115,-82.88704 -112.9906,-171.15363 -136.89299,-257.08933 -11.73774,-42.20063 -14.24559,-67.81983 -13.94759,-142.48083 0.41395,-103.7073 11.38627,-155.8128 51.79249,-245.9551 81.69764,-182.2596 178.79316,-304.485 290.3585,-365.5082 34.95559,-19.1197 81.48548,-23.9987 98.01806,-10.2778 14.23487,11.8138 14.17599,66.9361 -0.12858,120.6205 -14.49554,54.4002 -10.75531,62.2324 29.71949,62.2324 17.76,0 40.16213,2.9926 49.7824,6.6503 16.4164,6.2414 17.3007,8.6355 14.38759,38.9525 -3.51171,36.547 -24.74339,72.2988 -97.06778,163.4518 -70.74562,89.1631 -96.51587,159.2598 -96.51587,262.5298 0,67.3472 11.07383,112.16113 37.31748,151.01723 26.09454,38.6354 48.27469,53.3035 92.33812,61.0651 32.85932,5.7881 49.78138,4.7268 105.89916,-6.6413 36.73479,-7.4416 137.01255,-22.9154 222.83967,-34.3863 141.726645,-18.9419 171.8634653,-20.8742 328.35341,-21.0539 157.9444,-0.1816 185.8512,1.5778 334.8554,21.1074 89.4031,11.7179 190.3475,27.1094 224.3207,34.2037 106.5444,22.24816 157.246,8.2961 199.7628,-54.971 37.7617,-56.19133 49.1276,-134.27873 32.3954,-222.56903 -13.7908,-72.7697 -39.7519,-124.795 -101.4314,-203.2666 -64.5665,-82.1442 -83.2616,-113.3149 -88.8219,-148.0949 -3.7229,-23.2857 -2.3058,-28.1623 10.8639,-37.3867 9.3291,-6.5343 28.2348,-10.6081 49.2308,-10.6081 42.6886,0 51.922,-11.9743 38.5215,-49.9557 -11.0655,-31.3628 -19.468,-101.0226 -14.191,-117.6488 5.4596,-17.2018 31.9529,-27.9274 57.3173,-23.2047 60.1843,11.2064 159.72251,89.0314 226.00861,176.7074 18.0304,23.8486 54.2744,85.7869 80.5425,137.6407 71.1171,140.3868 88.4837,203.627 88.4837,322.2118 0,131.58353 -48.9466,262.33515 -141.0417,376.76589 -63.5085,78.91119 -106.998,149.34539 -124.45,201.55589 -12.3121,36.83394 -23.7896,108.94312 -62.71051,393.99141 -9.0798,66.498054 -21.1858,136.720194 -26.9021,156.0491543 C 916.79809,77.381434 844.55659,199.80495 782.12539,265.76485 660.63169,394.12581 362.22499,467.3495 50.380285,445.32218 Z M -133.46297,234.95025 C -43.647365,191.15775 1.4564753,99.17414 -7.1292547,-22.691606 -11.501805,-84.756536 -24.183735,-126.74152 -60.132125,-198.16357 -113.40728,-304.01028 -157.86809,-353.2868 -232.45906,-389.15635 c -36.49127,-17.54807 -49.36755,-20.32369 -94.27975,-20.32369 -44.63902,0 -56.19786,2.45822 -81.49923,17.3332 -39.03758,22.95041 -88.3784,76.47428 -105.59417,114.54624 -10.51122,23.24526 -14.49926,47.28955 -16.47123,99.30514 -2.23206,58.87727 -0.15791,77.82443 14.58972,133.291954 23.09344,86.855685 55.60029,150.644316 100.41109,197.038176 41.93174,43.41329 81.08438,70.08363 127.57614,86.90373 41.62427,15.05905 119.31842,13.05042 154.26352,-3.98815 z m 775.67036,-9.87969 c 59.2852,-28.94945 128.2875,-97.74013 157.1325,-156.650114 45.7723,-93.481282 68.7089,-214.480896 54.7664,-288.916326 -14.8266,-79.15426 -65.2031,-145.31302 -134.9689,-177.25296 -31.8866,-14.59807 -42.2394,-16.2453 -81.4462,-12.95839 -65.0576,5.45424 -107.9847,27.47682 -163.9,84.08469 -36.8618,37.31827 -54.2318,62.13745 -83.0777,118.70595 -20.0593,39.33739 -39.8936,82.27661 -44.0762,95.42054 -12.7574,40.089834 -18.3364,116.5385143 -12.1908,167.049221 6.9517,57.136419 26.2332,97.701449 64.85,136.433019 47.277,47.41779 78.7056,59.60253 148.6313,57.62413 40.7404,-1.15263 56.4826,-5.08303 94.2796,-23.53976 z"
       id="path81"
       inkscape:connector-curvature="0" />
  </g>
</svg>
